#N canvas 1270 487 526 432 12;
#X obj 201 91 inlet;
#X obj 201 115 bng 15 250 50 0 empty empty empty 17 7 0 10 #fcfcfc
#000000 #000000;
#X obj 254 91 inlet;
#X obj 225 161 f;
#X obj 310 196 t f b;
#X obj 310 340 *;
#X obj 342 247 random 10;
#X obj 342 271 / 20;
#X obj 342 295 + 0.7;
#X obj 98 215 noise~;
#X obj 98 239 hip~ 20000;
#X obj 98 263 hip~ 10000;
#X obj 98 287 *~;
#X obj 98 311 outlet~;
#X msg 202 240 \$1 \, 0 40 1;
#X obj 202 264 vline~;
#X connect 0 0 1 0;
#X connect 1 0 3 0;
#X connect 2 0 3 0;
#X connect 3 0 4 0;
#X connect 4 0 5 0;
#X connect 4 1 6 0;
#X connect 5 0 14 0;
#X connect 6 0 7 0;
#X connect 7 0 8 0;
#X connect 8 0 5 1;
#X connect 9 0 10 0;
#X connect 10 0 11 0;
#X connect 11 0 12 0;
#X connect 12 0 13 0;
#X connect 14 0 15 0;
#X connect 15 0 12 1;
