#N canvas 104 134 914 760 12;
#X obj 80 142 line~;
#X obj 80 166 pow~ 4;
#X obj 80 190 *~;
#X obj 80 214 *~ 4;
#X obj 220 111 phasor~ 350;
#X obj 220 135 *~ 2;
#X obj 220 159 -~ 1;
#X obj 220 233 *~;
#X obj 220 267 hip~ 8000;
#X obj 220 291 hip~ 8000;
#X obj 220 315 hip~ 8000;
#X obj 264 191 *~ 2;
#X obj 264 215 -~ 1;
#X obj 305 206 noise~;
#X obj 305 233 /~ 4;
#X msg 80 118 1 \, 0 200;
#X obj 80 256 /~ 5;
#X obj 264 167 phasor~ 900;
#X text 18 12 hihat;
#X obj 80 89 inlet b;
#X obj 81 324 outlet~;
#X connect 0 0 1 0;
#X connect 1 0 2 0;
#X connect 2 0 3 0;
#X connect 3 0 16 0;
#X connect 4 0 5 0;
#X connect 5 0 6 0;
#X connect 6 0 7 0;
#X connect 7 0 8 0;
#X connect 8 0 9 0;
#X connect 9 0 10 0;
#X connect 10 0 2 1;
#X connect 11 0 12 0;
#X connect 12 0 7 1;
#X connect 13 0 14 0;
#X connect 14 0 8 0;
#X connect 15 0 0 0;
#X connect 16 0 20 0;
#X connect 17 0 11 0;
#X connect 19 0 15 0;
