#N canvas 182 212 838 654 12;
#X msg 182 95 0 \, 1 200;
#X obj 182 119 line~;
#X obj 182 223 -~ 0.25;
#X obj 182 247 cos~;
#X obj 182 191 *~ 20;
#X obj 182 155 sqrt~;
#X obj 182 274 lop~ 1000;
#X obj 182 325 /~ 5;
#X text 185 31 input metro;
#X obj 182 66 inlet b;
#X text 19 15 Kick 2;
#X obj 182 363 outlet~;
#X obj 375 59 bng 19 250 50 0 empty empty empty 0 -10 0 12 #fcfcfc #000000 #000000;
#X obj 327 423 out~;
#X connect 0 0 1 0;
#X connect 1 0 5 0;
#X connect 2 0 3 0;
#X connect 3 0 6 0;
#X connect 4 0 2 0;
#X connect 5 0 4 0;
#X connect 6 0 7 0;
#X connect 7 0 11 0;
#X connect 7 0 13 0;
#X connect 7 0 13 1;
#X connect 9 0 0 0;
#X connect 12 0 0 0;
