#N canvas -95 19 1920 1007 12;
#X floatatom 293 242 7 0 0 0 - - - 24;
#X text 399 251 l (m);
#X floatatom 115 40 5 0 0 0 - - - 24;
#X text 191 47 T (N);
#X floatatom 182 94 9 0 0 0 - - - 24;
#X text 318 100 mi (g/cm);
#X obj 115 75 * 10;
#X floatatom 115 98 5 0 0 0 - - - 0;
#X obj 164 130 /;
#X floatatom 164 153 5 0 0 0 - - - 0;
#X obj 164 177 sqrt;
#X floatatom 164 220 5 0 0 0 - - - 16;
#X text 219 225 v (m/s);
#X obj 259 282 * 2;
#X floatatom 259 305 5 0 0 0 - - - 0;
#X obj 164 324 /;
#X floatatom 164 347 5 0 0 0 - - - 0;
#X floatatom 233 350 5 0 0 0 - - - 24;
#X text 311 358 n E Z+;
#X obj 164 390 *;
#X floatatom 164 413 5 0 0 0 - - - 16;
#X text 218 417 f (Hz);
#X text 543 213 Unidades de Medida:;
#X text 545 236 T (N);
#X text 546 261 l (m);
#X text 547 281 mi (g/cm);
#X text 549 305 n E Z+;
#X text 548 326 f (Hz);
#X text 782 107 E2 = 1.17 mm: 0.585 mm: 1.074 mm2: 0.01074 cm2 : cm3;
#X text 782 127 A2 = 0.91 mm: 0.455 mm: 0.65 mm2: 0.0065 cm2 : cm3;
#X text 782 147 D3 = 0.66 mm: 0.33 mm: 0.341 mm2: 0.00341 cm2 : cm3;
#X text 782 167 G3 = 0.43 mm: 0.215 mm: 0.145 mm2: 0.00145 cm2 : cm3;
#X text 782 187 B3 = 0.33 mm: 0.165 mm: 0.085 mm2: 0.00085 cm2 : cm3;
#X text 782 207 E4 = 0.25 mm: 0.125 mm: 0.049 mm2: 0.00085 cm2 : cm3;
#X text 782 84 Área e Volume das cordas;
#X text 783 247 Frequências de cada corda:;
#X text 783 268 E2 = 82.4 Hz;
#X text 783 288 A2 = 110 Hz;
#X text 783 308 D3 = 146.83 Hz;
#X text 783 328 G3 = 195.99 Hz;
#X text 783 348 B3 = 246.94 Hz;
#X text 783 368 E4 = 329.62 Hz;
#X text 783 409 Densilidade Linear, f 63;
#X text 783 429 E2 = De2 (g/cm3): De2 (g/cm3) x 0.01074(cm2) = miE2 (g/cm), f 63;
#X text 783 449 A2 = Da2 (g/cm3): Da2 (g/cm3) x 0.0065(cm2) = miA2 (g/cm), f 63;
#X text 783 469 D3 = Dd3 (g/cm3): Dd3 (g/cm3) x 0.00341(cm2) = miD3 (g/cm), f 63;
#X text 783 489 G3 = Dg3 (g/cm3): Dg3 (g/cm3) x 0.00145(cm2) = miG3 (g/cm), f 63;
#X text 783 509 B3 = Db3 (g/cm3): Db3 (g/cm3) x 0.00085(cm2) = miB3 (g/cm), f 63;
#X text 783 529 E4 = De4 (g/cm3): De4 (g/cm3) x 0.00321(cm2) = miE4 (g/cm), f 63;
#X text 783 569 De2 = miE2 / 0.01074 = 0.006684 / 0.01074 = 0.6223 (g/cm), f 63;
#X text 783 589 Da2 = miA2 / 0.0065 (CONTINUAR), f 63;
#X text 783 609 Dd3 = miD3 / 0.00341 (CONTINUAR), f 63;
#X text 783 629 Dg3 = miG3 / 0.00145 (CONTINUAR), f 63;
#X text 783 649 Db3 = miD3 / 0.00085 (CONTINUAR), f 63;
#X text 783 669 De4 = miE4 / 0.00321 (CONTINUAR), f 63;
#X text 783 719 Tensão das cordas (Kgf), f 63;
#X text 783 739 Te2 = 7 \, 67 Kgf, f 63;
#X text 783 759 Ta2 = 8 \, 84 Kgf, f 63;
#X text 783 779 Td3 = 8 \, 34 Kgf, f 63;
#X text 783 799 Tg3 = 7 \, 52 Kgf, f 63;
#X text 783 819 Tb3 = 6 \, 98 Kgf, f 63;
#X text 783 839 Te4 = 7 \, 36 Kgf, f 63;
#X text 545 82 Fórmula da frequência;
#X text 545 102 f = (v/2.l).n;
#X text 545 160 v = (10.T/mi)^0.5;
#X text 545 144 Fórmula da velocidade;
#X text 644 35 Densidade linear de cordas do violão, f 63;
#X connect 0 0 13 0;
#X connect 2 0 6 0;
#X connect 4 0 8 1;
#X connect 6 0 7 0;
#X connect 7 0 8 0;
#X connect 8 0 9 0;
#X connect 9 0 10 0;
#X connect 10 0 11 0;
#X connect 11 0 15 0;
#X connect 13 0 14 0;
#X connect 14 0 15 1;
#X connect 15 0 16 0;
#X connect 16 0 19 0;
#X connect 17 0 19 1;
#X connect 19 0 20 0;
