#N canvas 81 -991 1280 971 12;
#X floatatom 293 249 7 0 0 1 l\ (m) - - 24;
#X floatatom 55 54 5 0 0 1 T\ (N) - - 24;
#X floatatom 228 60 9 0 0 1 mi\ (g/cm) - - 24;
#X obj 55 89 * 10;
#X floatatom 55 112 5 0 0 0 - - - 0;
#X obj 164 130 /;
#X floatatom 164 153 5 0 0 0 - - - 0;
#X obj 164 177 sqrt;
#X floatatom 164 220 5 0 0 1 v\ (m/s) - - 16;
#X obj 293 283 * 2;
#X floatatom 293 306 5 0 0 0 - - - 0;
#X obj 164 347 /;
#X floatatom 164 370 5 0 0 0 - - - 0;
#X floatatom 268 438 5 0 0 1 n\ E\ Z+ - - 24;
#X obj 164 500 *;
#X floatatom 164 523 5 0 0 1 f\ (Hz) - - 16;
#X text 543 213 Unidades de Medida:;
#X text 543 234 T (N);
#X text 543 255 l (m);
#X text 543 276 mi (g/cm);
#X text 543 297 n E Z+;
#X text 543 318 f (Hz);
#X text 782 104 E2 = 1.17 mm: 0.585 mm: 1.074 mm2: 0.01074 cm2 : cm3;
#X text 782 124 A2 = 0.91 mm: 0.455 mm: 0.65 mm2: 0.0065 cm2 : cm3;
#X text 782 144 D3 = 0.66 mm: 0.33 mm: 0.341 mm2: 0.00341 cm2 : cm3;
#X text 782 164 G3 = 0.43 mm: 0.215 mm: 0.145 mm2: 0.00145 cm2 : cm3;
#X text 782 184 B3 = 0.33 mm: 0.165 mm: 0.085 mm2: 0.00085 cm2 : cm3;
#X text 782 204 E4 = 0.25 mm: 0.125 mm: 0.049 mm2: 0.00085 cm2 : cm3;
#X text 782 84 Área e Volume das cordas;
#X text 783 247 Frequências de cada corda:;
#X text 783 267 E2 = 82.4 Hz;
#X text 783 287 A2 = 110 Hz;
#X text 783 307 D3 = 146.83 Hz;
#X text 783 327 G3 = 195.99 Hz;
#X text 783 347 B3 = 246.94 Hz;
#X text 783 367 E4 = 329.62 Hz;
#X text 783 409 Densilidade Linear, f 63;
#X text 783 429 E2 = De2 (g/cm3): De2 (g/cm3) x 0.01074(cm2) = miE2 (g/cm), f 63;
#X text 783 449 A2 = Da2 (g/cm3): Da2 (g/cm3) x 0.0065(cm2) = miA2 (g/cm), f 63;
#X text 783 469 D3 = Dd3 (g/cm3): Dd3 (g/cm3) x 0.00341(cm2) = miD3 (g/cm), f 63;
#X text 783 489 G3 = Dg3 (g/cm3): Dg3 (g/cm3) x 0.00145(cm2) = miG3 (g/cm), f 63;
#X text 783 509 B3 = Db3 (g/cm3): Db3 (g/cm3) x 0.00085(cm2) = miB3 (g/cm), f 63;
#X text 783 529 E4 = De4 (g/cm3): De4 (g/cm3) x 0.00321(cm2) = miE4 (g/cm), f 63;
#X text 783 569 De2 = miE2 / 0.01074 = 0.006684 / 0.01074 = 0.6223 (g/cm), f 63;
#X text 783 589 Da2 = miA2 / 0.0065 (CONTINUAR), f 63;
#X text 783 609 Dd3 = miD3 / 0.00341 (CONTINUAR), f 63;
#X text 783 629 Dg3 = miG3 / 0.00145 (CONTINUAR), f 63;
#X text 783 649 Db3 = miD3 / 0.00085 (CONTINUAR), f 63;
#X text 783 669 De4 = miE4 / 0.00321 (CONTINUAR), f 63;
#X text 783 719 Tensão das cordas (Kgf), f 63;
#X text 783 739 Te2 = 7 \, 67 Kgf, f 63;
#X text 783 759 Ta2 = 8 \, 84 Kgf, f 63;
#X text 783 779 Td3 = 8 \, 34 Kgf, f 63;
#X text 783 799 Tg3 = 7 \, 52 Kgf, f 63;
#X text 783 819 Tb3 = 6 \, 98 Kgf, f 63;
#X text 783 839 Te4 = 7 \, 36 Kgf, f 63;
#X text 545 82 Fórmula da frequência;
#X text 545 102 f = (v/2.l).n;
#X text 545 163 v = (10.T/mi)^0.5;
#X text 545 144 Fórmula da velocidade;
#X text 644 35 Densidade linear de cordas do violão, f 63;
#N canvas 76 -999 1280 971 karplus 0;
#X obj 62 -6 inlet;
#X obj 94 151 unpack;
#X obj 94 179 stripnote;
#X obj 94 207 t b f;
#X msg 94 247 0 \, 64 20;
#X obj 94 271 vline~;
#X obj 42 407 noise~;
#X obj 75 433 *~;
#X obj 75 471 lop~;
#X obj 385 520 delwrite~ \$0-ks-d 10000;
#X obj 248 312 r \$0-notefreq;
#X obj 248 438 *;
#X obj 256 334 r \$0-vel;
#X obj 256 411 *;
#X obj 270 357 r \$0-grit;
#X obj 270 381 t b f;
#X obj 358 228 else/adsr~ 10 1 1 10;
#X obj 358 697 *~;
#X obj 358 894 outlet~;
#X obj 78 635 block~ 1 1 1;
#X obj 367 193 s \$0-vel;
#X obj 376 272 mtof;
#X obj 389 301 s \$0-notefreq;
#X msg 376 326 1000 \$1;
#X obj 376 350 /;
#X obj 389 387 s \$0-delay-ms;
#X obj 376 424 delread4~ \$0-ks-d;
#X obj 376 465 *~;
#X obj 386 488 lop~;
#X obj 533 369 / 500;
#X obj 533 395 + 0;
#X msg 533 420 1 \$1;
#X obj 533 446 -;
#X obj 376 551 hip~ 10;
#X obj 376 625 lop~;
#X obj 681 184 loadbang;
#X obj 718 228 bng 15 250 50 0 empty empty empty 17 7 0 10 #fcfcfc #000000 #000000;
#X obj 718 252 samplerate~;
#X obj 718 276 / 5;
#X floatatom 718 300 5 0 0 0 - - - 0;
#X obj 840 322 s \$0-grit;
#X obj 840 280 clip 0 10;
#X msg 840 229 1;
#X obj 681 341 bng 15 250 50 0 empty empty empty 17 7 0 10 #fcfcfc #000000 #000000;
#X obj 701 365 samplerate~;
#X obj 701 389 / 128;
#X obj 701 413 osc~;
#X obj 701 437 *~ 1;
#X obj 701 461 *~ 0.5;
#X obj 701 485 +~ 0.5;
#X obj 94 305 tabread4~ window_\$0;
#X obj 681 509 tabwrite~ window_\$0;
#X msg 790 362 0;
#N canvas 0 50 450 250 (subpatch) 0;
#X array window_\$0 60 float 1;
#A 0 1 0.999398 0.997592 0.994588 0.990393 0.985016 0.97847 0.970772 0.96194 0.951995 0.940961 0.928864 0.915735 0.901604 0.886505 0.870476 0.853554 0.83578 0.817197 0.79785 0.777785 0.757052 0.735699 0.713778 0.691342 0.668445 0.645143 0.62149 0.597546 0.573366 0.549009 0.524534 0.5 0.475467 0.450992 0.426635 0.402455 0.37851 0.354858 0.331555 0.308659 0.286223 0.264302 0.242949 0.222215 0.202151 0.182804 0.164221 0.146447 0.129525 0.113496 0.098397 0.084266 0.0711364 0.0590401 0.0480061 0.0380609 0.0292286 0.0215304 0.0149848;
#X coords 0 1 59 0 200 140 1 0 0;
#X restore 85 675 graph;
#X obj 417 469 r \$0_sr_cutoff;
#X obj 718 323 s \$0_sr_cutoff;
#X obj 401 599 r \$0_sr_cutoff;
#X obj 358 727 else/plate.rev~ 50 0.6 0.25 0.8 0.8;
#N canvas 744 250 1130 508 amplitude 0;
#X floatatom 45 90 5 0 0 0 - - - 0;
#X floatatom 115 90 5 0 0 0 - - - 0;
#X floatatom 185 90 5 0 0 0 - - - 0;
#X floatatom 255 90 5 0 0 0 - - - 0;
#X obj 45 66 moses 36;
#X obj 115 66 moses 48;
#X obj 185 66 moses 60;
#X obj 255 66 moses 72;
#X floatatom 324 91 5 0 0 0 - - - 0;
#X obj 324 67 moses 84;
#X floatatom 122 187 5 0 0 0 - - - 0;
#X obj 122 210 outlet;
#X msg 45 113 80;
#X msg 115 113 60;
#X msg 185 113 40;
#X msg 255 113 20;
#X msg 324 114 10;
#X msg 371 119 5;
#X obj 45 42 r midi_\$0;
#X connect 0 0 12 0;
#X connect 1 0 13 0;
#X connect 2 0 14 0;
#X connect 3 0 15 0;
#X connect 4 0 0 0;
#X connect 4 1 5 0;
#X connect 5 0 1 0;
#X connect 5 1 6 0;
#X connect 6 0 2 0;
#X connect 6 1 7 0;
#X connect 7 0 3 0;
#X connect 7 1 9 0;
#X connect 8 0 16 0;
#X connect 9 0 8 0;
#X connect 9 1 17 0;
#X connect 10 0 11 0;
#X connect 12 0 10 0;
#X connect 13 0 10 0;
#X connect 14 0 10 0;
#X connect 15 0 10 0;
#X connect 16 0 10 0;
#X connect 17 0 10 0;
#X connect 18 0 4 0;
#X restore 383 812 pd amplitude;
#X obj 878 232 r grit-input;
#X obj 94 53 ftom;
#X obj 62 24 sel 0;
#X obj 94 126 pack, f 17;
#X floatatom 101 75 5 0 0 0 - - - 0;
#X obj 358 164 dbtorms;
#X obj 75 528 env~;
#X floatatom 75 552 5 0 0 0 - - - 0;
#X floatatom 248 463 5 0 0 0 - - - 0;
#X obj 358 777 expr~ tanh($v1);
#X obj 358 840 *~ 8;
#X obj 206 259 s midi_\$0;
#X obj 358 867 *~ 10;
#X obj 210 75 inlet;
#X text 252 76 duração;
#X obj 94 100 makenote 100 1000;
#X connect 0 0 61 0;
#X connect 1 0 2 0;
#X connect 1 1 2 1;
#X connect 1 1 64 0;
#X connect 2 0 3 0;
#X connect 3 0 4 0;
#X connect 3 1 21 0;
#X connect 3 1 70 0;
#X connect 4 0 5 0;
#X connect 5 0 50 0;
#X connect 6 0 7 0;
#X connect 7 0 8 0;
#X connect 8 0 9 0;
#X connect 8 0 65 0;
#X connect 10 0 11 0;
#X connect 11 0 8 1;
#X connect 11 0 67 0;
#X connect 12 0 13 0;
#X connect 13 0 11 1;
#X connect 14 0 15 0;
#X connect 15 0 13 0;
#X connect 15 1 13 1;
#X connect 16 0 17 0;
#X connect 17 0 57 0;
#X connect 21 0 22 0;
#X connect 21 0 23 0;
#X connect 23 0 24 0;
#X connect 24 0 25 0;
#X connect 24 0 26 0;
#X connect 24 0 29 0;
#X connect 26 0 27 0;
#X connect 27 0 28 0;
#X connect 27 0 33 0;
#X connect 28 0 9 0;
#X connect 29 0 30 0;
#X connect 30 0 31 0;
#X connect 31 0 32 0;
#X connect 32 0 27 1;
#X connect 33 0 34 0;
#X connect 34 0 17 1;
#X connect 35 0 36 0;
#X connect 35 0 42 0;
#X connect 35 0 43 0;
#X connect 36 0 37 0;
#X connect 37 0 38 0;
#X connect 38 0 39 0;
#X connect 39 0 55 0;
#X connect 41 0 40 0;
#X connect 42 0 41 0;
#X connect 43 0 44 0;
#X connect 43 0 52 0;
#X connect 43 0 51 0;
#X connect 44 0 45 0;
#X connect 45 0 46 0;
#X connect 46 0 47 0;
#X connect 47 0 48 0;
#X connect 48 0 49 0;
#X connect 49 0 51 0;
#X connect 50 0 7 1;
#X connect 52 0 46 1;
#X connect 54 0 28 1;
#X connect 56 0 34 1;
#X connect 57 0 68 0;
#X connect 57 1 68 0;
#X connect 58 0 69 1;
#X connect 59 0 41 0;
#X connect 60 0 63 0;
#X connect 60 0 74 0;
#X connect 61 1 60 0;
#X connect 62 0 1 0;
#X connect 64 0 16 0;
#X connect 64 0 20 0;
#X connect 65 0 66 0;
#X connect 68 0 69 0;
#X connect 69 0 71 0;
#X connect 71 0 18 0;
#X connect 72 0 74 2;
#X connect 74 0 62 0;
#X connect 74 1 62 1;
#X restore 164 601 pd karplus;
#X obj 164 655 out~;
#X obj 228 111 t b f;
#X obj 293 328 t b f;
#X obj 268 481 t b f;
#X obj 164 623 *~ 1;
#X floatatom 231 568 5 0 0 1 Duração\ (ms) - - 16;
#X connect 0 0 9 0;
#X connect 1 0 3 0;
#X connect 2 0 63 0;
#X connect 3 0 4 0;
#X connect 4 0 5 0;
#X connect 5 0 6 0;
#X connect 6 0 7 0;
#X connect 7 0 8 0;
#X connect 8 0 11 0;
#X connect 9 0 10 0;
#X connect 10 0 64 0;
#X connect 11 0 12 0;
#X connect 12 0 14 0;
#X connect 13 0 65 0;
#X connect 14 0 15 0;
#X connect 15 0 61 0;
#X connect 61 0 66 0;
#X connect 63 0 5 0;
#X connect 63 1 5 1;
#X connect 64 0 11 0;
#X connect 64 1 11 1;
#X connect 65 0 14 0;
#X connect 65 1 14 1;
#X connect 66 0 62 0;
#X connect 67 0 61 1;
