#N canvas -7 30 958 998 12;
#X obj 225 338 bng 15 250 50 0 empty empty empty 17 7 0 10 #fcfcfc #000000 #000000;
#X obj 215 143 + 0;
#X obj 215 167 *;
#X floatatom 291 191 5 0 16 1 Notes - - 0;
#X obj 215 191 % 16;
#X obj 215 215 <;
#X obj 215 239 sel 1;
#X obj 215 267 bng 15 250 50 0 empty empty empty 17 7 0 10 #fcfcfc #000000 #000000;
#X obj 260 295 f;
#X obj 215 111 t f f;
#X floatatom 260 319 5 0 0 0 - - - 0;
#X obj 225 358 outlet;
#X obj 215 82 inlet b;
#X text 199 55 input metro;
#X obj 36 63 tgl 35 0 empty empty ON/OFF 0 -8 0 10 #feffc6 #000000 #000000 0 1;
#X obj 144 128 nbx 3 35 200 200 0 0 empty empty METRO 0 -8 0 10 #c6ffc7 #000000 #000000 0 256;
#X obj 90 63 nbx 3 35 0 16 0 0 empty empty NOTES 0 -8 0 10 #feffc6 #000000 #000000 0 256;
#X obj 54 129 metro 200;
#X obj 54 173 f;
#X obj 92 174 + 1;
#X obj 8 131 == 0;
#X obj 54 197 % 16;
#X obj 36 22 cnv 15 100 20 empty empty Ritmo\ Euclideana 3 10 0 10 #ffe3c6 #404040 0;
#X obj 387 81 bng 19 250 50 0 empty empty empty 0 -10 0 12 #fcfcfc #000000 #000000;
#X connect 0 0 11 0;
#X connect 1 0 2 0;
#X connect 2 0 4 0;
#X connect 3 0 2 1;
#X connect 3 0 5 1;
#X connect 4 0 5 0;
#X connect 5 0 6 0;
#X connect 6 0 7 0;
#X connect 7 0 8 0;
#X connect 8 0 10 0;
#X connect 9 0 1 0;
#X connect 9 1 8 1;
#X connect 10 0 0 0;
#X connect 12 0 9 0;
#X connect 14 0 17 0;
#X connect 14 0 20 0;
#X connect 15 0 17 1;
#X connect 16 0 3 0;
#X connect 17 0 18 0;
#X connect 18 0 19 0;
#X connect 18 0 21 0;
#X connect 19 0 18 1;
#X connect 20 0 18 1;
#X connect 21 0 9 0;
#X connect 23 0 9 0;
#X coords 0 -1 1 1 135 90 2 18 15;
