#N canvas 190 16 1920 1007 12;
#X floatatom 203 225 5 0 0 1 Hz ff - 0;
#X obj 203 328 *;
#X obj 203 455 osc~;
#X obj 406 261 tgl 35 0 empty tt empty 0 -10 0 12 #fcfcfc #000000 #000000 0 1;
#X obj 406 315 metro 150;
#X obj 406 349 f;
#X obj 461 348 + 1;
#X obj 530 413 sel 8;
#X msg 530 441 0;
#X floatatom 562 381 5 0 0 0 - nh - 0;
#X obj 406 403 t b f;
#X floatatom 261 414 5 0 0 1 Hz - - 0;
#X text 200 202 Frequencia fundamental;
#X text 604 381 Numero de series harmonicas;
#X floatatom 466 277 5 0 0 1 ms tm - 0;
#X obj 185 489 *~;
#X obj 109 290 vsl 25 100 0 100 0 0 empty vlin empty 0 -9 0 12 #c6ffc7 #000000 #000000 0 1;
#X obj 109 398 / 100;
#X msg 109 422 \$1 20;
#X obj 109 446 line~;
#X floatatom 159 422 5 0 0 0 - - - 0;
#X floatatom 358 372 5 0 0 0 - - - 0;
#X obj 185 513 outlet~;
#X floatatom 116 52 7 0 0 2 Freq.\ Fund. - ff 0;
#X obj 49 52 tgl 35 0 tt empty Tempo 0 -10 0 12 #fcfcfc #000000 #000000 0 1;
#X floatatom 50 107 5 0 0 2 ms - tm 0;
#X obj 118 94 hsl 162 19 0 100 0 0 vlin empty Volume -2 -10 0 12 #c6feff #000000 #000000 0 1;
#X floatatom 115 118 5 0 0 0 - - - 0;
#X obj 263 486 outlet~ spec;
#X floatatom 208 54 5 0 0 2 N.\ Harm. - nh 0;
#X text 280 438 Harmonicos;
#X connect 0 0 1 0;
#X connect 1 0 11 0;
#X connect 1 0 2 0;
#X connect 2 0 15 1;
#X connect 2 0 28 0;
#X connect 3 0 4 0;
#X connect 4 0 5 0;
#X connect 5 0 6 0;
#X connect 5 0 7 0;
#X connect 5 0 10 0;
#X connect 5 0 21 0;
#X connect 6 0 5 1;
#X connect 7 0 8 0;
#X connect 8 0 5 0;
#X connect 9 0 7 1;
#X connect 9 0 8 0;
#X connect 10 0 1 0;
#X connect 10 1 1 1;
#X connect 14 0 4 1;
#X connect 15 0 22 0;
#X connect 16 0 17 0;
#X connect 17 0 18 0;
#X connect 17 0 20 0;
#X connect 18 0 19 0;
#X connect 19 0 15 0;
#X connect 26 0 27 0;
#X coords 0 -1 1 1 250 130 2 40 30;
