#N canvas 798 195 954 673 12;
#X obj 139 447 osc~;
#X obj 139 501 *~ 0.1;
#X obj 139 357 / 2;
#X floatatom 177 396 5 0 0 0 - - - 0;
#X obj 244 448 osc~;
#X floatatom 282 397 5 0 0 0 - - - 0;
#X obj 349 448 osc~;
#X obj 349 502 *~ 0.1;
#X floatatom 387 397 5 0 0 0 - - - 0;
#X obj 455 449 osc~;
#X obj 455 503 *~ 0.1;
#X floatatom 493 398 5 0 0 0 - - - 0;
#X obj 560 449 osc~;
#X obj 560 503 *~ 0.1;
#X floatatom 598 398 5 0 0 0 - - - 0;
#X obj 665 449 osc~;
#X obj 665 503 *~ 0.1;
#X floatatom 703 398 5 0 0 0 - - - 0;
#X obj 761 453 osc~;
#X obj 761 507 *~ 0.1;
#X floatatom 799 402 5 0 0 0 - - - 0;
#X obj 866 453 osc~;
#X obj 866 507 *~ 0.1;
#X obj 244 358 / 3;
#X obj 349 358 / 4;
#X obj 455 359 / 5;
#X obj 560 359 / 6;
#X obj 665 359 / 7;
#X obj 761 363 / 8;
#X obj 866 363 / 9;
#X obj 48 436 osc~;
#X obj 48 490 *~ 0.1;
#X obj 244 502 *~ 0.1;
#X obj 154 649 outlet~;
#X obj 48 312 inlet;
#X floatatom 32 19 5 0 0 1 f(Hz) - - 16;
#X obj 88 -44 clone;
#X connect 0 0 1 0;
#X connect 1 0 33 0;
#X connect 2 0 0 0;
#X connect 2 0 3 0;
#X connect 4 0 32 0;
#X connect 6 0 7 0;
#X connect 7 0 33 0;
#X connect 9 0 10 0;
#X connect 10 0 33 0;
#X connect 12 0 13 0;
#X connect 13 0 33 0;
#X connect 15 0 16 0;
#X connect 16 0 33 0;
#X connect 18 0 19 0;
#X connect 19 0 33 0;
#X connect 21 0 22 0;
#X connect 22 0 33 0;
#X connect 23 0 4 0;
#X connect 23 0 5 0;
#X connect 24 0 6 0;
#X connect 24 0 8 0;
#X connect 25 0 9 0;
#X connect 25 0 11 0;
#X connect 26 0 12 0;
#X connect 26 0 14 0;
#X connect 27 0 15 0;
#X connect 27 0 17 0;
#X connect 28 0 18 0;
#X connect 28 0 20 0;
#X connect 29 0 21 0;
#X connect 30 0 31 0;
#X connect 31 0 33 0;
#X connect 32 0 33 0;
#X connect 34 0 2 0;
#X connect 34 0 29 0;
#X connect 34 0 28 0;
#X connect 34 0 27 0;
#X connect 34 0 26 0;
#X connect 34 0 25 0;
#X connect 34 0 24 0;
#X connect 34 0 23 0;
#X connect 34 0 30 0;
