#N canvas 839 219 982 561 12;
#X obj 175 37 inlet;
#X obj 175 61 bng 15 250 50 0 empty empty empty 17 7 0 10 #fcfcfc #000000
#000000;
#X msg 175 125 150 \, 50 70 0;
#X obj 175 149 vline~;
#X obj 175 173 osc~;
#X obj 175 197 *~;
#X obj 175 221 outlet~;
#X obj 295 97 f;
#X obj 251 37 inlet;
#X msg 295 145 \$1 1 0 \, 0 100 1;
#X obj 295 169 vline~;
#X text 296 34 volume;
#X text 131 36 bang;
#X connect 0 0 1 0;
#X connect 1 0 2 0;
#X connect 1 0 7 0;
#X connect 2 0 3 0;
#X connect 3 0 4 0;
#X connect 4 0 5 0;
#X connect 5 0 6 0;
#X connect 7 0 9 0;
#X connect 8 0 7 1;
#X connect 9 0 10 0;
#X connect 10 0 5 1;
