#N canvas 0 23 1280 755 12;
#X obj 168 183 *~;
#X obj 304 13 tgl 19 0 empty empty empty 0 -10 0 12 #fcfcfc #000000 #000000 0 1;
#X obj 262 104 bng 19 250 50 0 empty empty empty 0 -10 0 12 #fcfcfc #000000 #000000;
#X msg 269 164 1 5 \, 0.5 5 5 \, 0 70 120;
#X obj 304 37 metro 250;
#X obj 269 188 vline~;
#X msg 852 294 bpm * divisao * n_de_compassos;
#X obj 552 104 tgl 19 0 empty empty empty 0 -10 0 12 #fcfcfc #000000 #000000 0 1;
#X msg 387 258 clear;
#X msg 539 263 1;
#X obj 539 287 pack f 64000;
#X msg 539 311 0 \, \$1 \$2;
#X obj 539 335 line~;
#X obj 539 359 env~;
#X obj 539 383 dbtorms;
#X obj 539 407 hsl 162 19 0 1 0 0 empty empty empty -2 -10 0 12 #fcfcfc #000000 #000000 0 1;
#X obj 511 133 sel 0;
#X obj 567 162 metro 64000;
#X obj 715 166 r duration;
#X obj 321 86 random 5;
#X obj 321 134 sel 1;
#X obj 321 110 >= 3;
#X obj 304 666 out~;
#X obj 169 232 throw~ output;
#X obj 164 98 pink~;
#X obj 102 319 delwrite~ delay_buffer 10000;
#X obj 355 617 *~ 1;
#X obj 179 528 catch~ output;
#X msg 1058 350 120 4 4 8;
#X floatatom 1058 439 5 0 0 1 ms - - 0;
#X obj 1058 415 expr (60000/$f1)*$f2*$f3*$f4;
#X obj 1058 462 pack f 10;
#X obj 1154 455 s duration;
#X listbox 1058 374 20 0 0 0 - - - 0;
#X obj 1058 510 delread4~ delay_buffer 8000;
#X obj 1058 486 line~;
#X obj 329 414;
#X connect 0 0 23 0;
#X connect 0 0 25 0;
#X connect 1 0 4 0;
#X connect 2 0 3 0;
#X connect 3 0 5 0;
#X connect 4 0 19 0;
#X connect 5 0 0 1;
#X connect 7 0 16 0;
#X connect 7 0 17 0;
#X connect 8 0 25 0;
#X connect 9 0 10 0;
#X connect 10 0 11 0;
#X connect 11 0 12 0;
#X connect 12 0 13 0;
#X connect 13 0 14 0;
#X connect 14 0 15 0;
#X connect 16 0 8 0;
#X connect 17 0 9 0;
#X connect 18 0 17 1;
#X connect 18 0 10 1;
#X connect 19 0 21 0;
#X connect 20 0 2 0;
#X connect 21 0 20 0;
#X connect 24 0 0 0;
#X connect 26 0 22 0;
#X connect 26 0 22 1;
#X connect 27 0 26 0;
#X connect 28 0 33 0;
#X connect 29 0 31 0;
#X connect 29 0 32 0;
#X connect 30 0 29 0;
#X connect 31 0 35 0;
#X connect 33 0 30 0;
#X connect 35 0 34 0;
