#N canvas 577 194 879 706 12;
#X obj 143 72 tgl 35 0 empty empty ON/OFF 0 -5 0 10 #ffc7c6 #000000
#000000 0 1;
#X obj 143 133 contador;
#X floatatom 205 134 5 0 0 0 - - - 0;
#X floatatom 102 161 5 0 0 0 - - sequencia 0;
#X obj 143 160 outlet;
#X obj 191 72 bng 35 250 50 0 empty empty METRO 0 -5 0 10 #c7c6ff #000000
#000000;
#X listbox 239 80 5 0 0 2 BPM - - 16;
#X obj 99 72 tgl 35 0 empty empty DSP 0 -5 0 10 #dfdfdf #000000 #000000
0 1;
#X msg 13 123 \; pd dsp \$1;
#X obj 23 93 inlet;
#X connect 0 0 1 0;
#X connect 1 0 4 0;
#X connect 1 0 3 0;
#X connect 1 0 5 0;
#X connect 2 0 1 1;
#X connect 6 0 2 0;
#X connect 7 0 8 0;
#X connect 9 0 7 0;
#X coords 0 -1 1 1 210 62 2 90 55;
