#N canvas 585 235 695 479 12;
#X obj 124 98 player~;
#X obj 138 292 room_delay~;
#X obj 138 356 out~;
#X obj 255 24 knob 50 1 1000 0 1 empty empty #dfdfdf #7c7c7c black 0 0 0 0 1 320 0 0;
#X obj 121 27 bng 19 250 50 0 empty empty empty 0 -10 0 12 #fcfcfc #000000 #000000;
#X obj 138 324 *~ 10;
#X msg 325 323 range center_frequency gap;
#X msg 239 197 all range \$1;
#X obj 266 141 knob 50 0 12 0 0 empty empty #dfdfdf #7c7c7c black 0 0 0 0 1 320 0 0;
#X msg 169 53 loop 1;
#X floatatom 255 79 5 0 0 0 - - - 0;
#X obj 374 148 knob 50 24 80 0 24 empty empty #dfdfdf #7c7c7c black 0 0 0 0 1 320 0 0;
#X msg 360 121 range 24 80;
#X msg 347 204 all center_frequency \$1;
#X connect 0 0 1 0;
#X connect 1 0 5 0;
#X connect 3 0 10 0;
#X connect 4 0 0 0;
#X connect 5 0 2 0;
#X connect 7 0 1 2;
#X connect 8 0 7 0;
#X connect 9 0 0 0;
#X connect 10 0 1 1;
#X connect 11 0 13 0;
#X connect 12 0 11 0;
#X connect 13 0 1 2;
