#N canvas 585 235 695 538 12;
#X obj 166 88 player~;
#X obj 140 218 room_delay~;
#X obj 32 427 out~;
#X obj 255 24 knob 50 1 1000 0 1 empty empty #dfdfdf #7c7c7c black 0 0 0 0 1 320 0 0;
#X obj 166 23 bng 19 250 50 0 empty empty empty 0 -10 0 12 #fcfcfc #000000 #000000;
#X msg 282 345 range center_frequency gap;
#X msg 239 197 all range \$1;
#X obj 266 141 knob 50 0 12 0 0 empty empty #dfdfdf #7c7c7c black 0 0 0 0 1 320 0 0;
#X msg 169 53 loop 1;
#X floatatom 255 79 5 0 0 1 ms - - 0;
#X obj 374 148 knob 50 24 80 0 24 empty empty #dfdfdf #7c7c7c black 0 0 0 0 1 320 0 0;
#X msg 347 204 all center_frequency \$1;
#X obj 140 242 delwrite~ loop_buffer 10000;
#X obj 138 276 delread~ loop_buffer 1000;
#X obj 19 77 adc~;
#X obj 19 101 *~;
#X obj 76 66 tgl 19 0 empty empty empty 0 -10 0 12 #fcfcfc #000000 #000000 0 1;
#X obj 76 90 pack f 100;
#X obj 76 114 line~;
#X msg 346 242 clear;
#X obj 32 356 *~ 10;
#X obj 32 392 tanh~;
#X msg 265 108 clear;
#X obj 373 61 delread~ loop_buffer 7000;
#X obj 529 85 hsl 162 19 0 0.8 0 0 empty empty empty -2 -10 0 12 #fcfcfc #000000 #000000 0 1;
#X obj 373 85 *~;
#X obj 138 300 *~;
#X obj 526 156 pack f 10;
#X obj 526 180 line~;
#X floatatom 526 133 5 0 0 0 - - - 0;
#X msg 517 219 all gap \$1;
#X obj 618 155 knob 50 -5 5 0 5 empty empty #dfdfdf #7c7c7c black 0 0 0 0 1 320 0 0;
#X msg 604 128 range -5 5;
#X floatatom 618 210 5 0 0 0 - - - 0;
#X obj 526 109 pow 1;
#X connect 0 0 1 0;
#X connect 1 0 12 0;
#X connect 1 0 20 0;
#X connect 3 0 9 0;
#X connect 4 0 0 0;
#X connect 6 0 1 2;
#X connect 7 0 6 0;
#X connect 8 0 0 0;
#X connect 9 0 1 1;
#X connect 10 0 11 0;
#X connect 11 0 1 2;
#X connect 13 0 26 0;
#X connect 14 0 15 0;
#X connect 15 0 1 0;
#X connect 16 0 17 0;
#X connect 17 0 18 0;
#X connect 18 0 15 1;
#X connect 19 0 12 0;
#X connect 19 0 1 2;
#X connect 20 0 21 0;
#X connect 21 0 2 0;
#X connect 22 0 1 2;
#X connect 23 0 25 0;
#X connect 24 0 34 0;
#X connect 25 0 1 0;
#X connect 26 0 20 0;
#X connect 27 0 28 0;
#X connect 28 0 25 1;
#X connect 28 0 26 1;
#X connect 29 0 27 0;
#X connect 30 0 1 2;
#X connect 31 0 30 0;
#X connect 31 0 33 0;
#X connect 32 0 31 0;
#X connect 34 0 29 0;
