#N canvas 128 324 966 527 12;
#X obj 246 86 inlet~;
#X obj 246 110 *~;
#X obj 490 129 *~;
#X obj 696 148 dac~;
#X obj 195 62 pack f 10;
#X obj 195 86 line~;
#X obj 816 86 pack f 10;
#X obj 816 110 line~;
#X obj 816 62 r Left_\$0;
#X obj 195 18 r \$0_input-1;
#X obj 562 129 *~;
#X obj 889 86 pack f 10;
#X obj 889 110 line~;
#X obj 889 62 r Right_\$0;
#X obj 346 86 inlet~;
#X obj 346 110 *~;
#X obj 295 62 pack f 10;
#X obj 295 86 line~;
#X obj 295 18 r \$0_input-2;
#X obj 453 86 inlet~;
#X obj 453 110 *~;
#X obj 402 62 pack f 10;
#X obj 402 86 line~;
#X obj 553 86 inlet~;
#X obj 553 110 *~;
#X obj 502 62 pack f 10;
#X obj 502 86 line~;
#X obj 402 18 r \$0_input-3;
#X obj 502 18 r \$0_input-4;
#X obj 664 86 inlet~;
#X obj 664 110 *~;
#X obj 613 62 pack f 10;
#X obj 613 86 line~;
#X obj 764 86 inlet~;
#X obj 764 110 *~;
#X obj 713 62 pack f 10;
#X obj 713 86 line~;
#X obj 491 198 writesf~ 2;
#X obj 343 167 r rec-controls_\$0;
#X obj 97 126 tgl 19 0 empty empty DSP 20 10 0 12 #ff0400 #ffffff #000000 0 1;
#X msg 98 74 \; pd dsp \$1;
#X obj 12 175 hsl 100 15 0 100 0 0 \$0_input-1 empty channel_1 5 8 0 12 #fcac44 #000000 #000000 0 1;
#X obj 12 195 hsl 100 15 0 100 0 0 \$0_input-2 empty channel_2 5 8 0 12 #e8e828 #000000 #000000 0 1;
#X obj 12 215 hsl 100 15 0 100 0 0 \$0_input-3 empty channel_3 5 8 0 12 #14e814 #000000 #000000 0 1;
#X obj 12 235 hsl 100 15 0 100 0 0 \$0_input-4 empty channel_4 5 8 0 12 #28f4f4 #000000 #000000 0 1;
#X obj 12 255 hsl 100 15 0 100 0 0 \$0_input-5 empty channel_5 5 8 0 12 #c7c6ff #000000 #000000 0 1;
#X obj 12 275 hsl 100 15 0 100 0 0 \$0_input-6 empty channel_6 5 8 0 12 #e3c6ff #000000 #000000 0 1;
#X obj 613 18 r \$0_input-5;
#X obj 713 18 r \$0_input-6;
#X obj 12 296 hsl 100 18 0 100 0 0 \$0_master empty Master 5 10 0 12 #fcfcfc #000000 #000000 0 1;
#X obj 516 228 r \$0_master;
#X obj 516 252 s Left_\$0;
#X obj 516 283 s Right_\$0;
#X obj 252 148 env~;
#X obj 252 172 - 100;
#X obj 140 193 vu 19 120 empty empty -1 -10 0 10 #404040 #ffffff 1 0;
#X obj 298 148 env~;
#X obj 298 172 - 100;
#X obj 166 193 vu 19 120 empty empty -20 -10 0 12 #404040 #000000 1 0;
#X listbox 10 153 25 0 0 1 .wav - \$0_file_name 0;
#X obj 380 251 r \$0_file_name;
#X obj 147 126 tgl 19 0 rec_tgl_\$0 empty REC 20 10 0 12 #ffffff #ff0400 #000000 0 1;
#X obj 345 297 symbol;
#X msg 345 321 open \$1.wav;
#X obj 345 345 t b a;
#X msg 324 370 start;
#X obj 281 237 r rec_tgl_\$0;
#X obj 281 261 sel 0 1;
#X msg 287 378 stop;
#X obj 408 418 s rec-controls_\$0;
#X obj 195 40 dbtorms;
#X obj 295 40 dbtorms;
#X obj 402 40 dbtorms;
#X obj 502 40 dbtorms;
#X obj 613 40 dbtorms;
#X obj 713 40 dbtorms;
#X connect 0 0 1 0;
#X connect 1 0 2 0;
#X connect 1 0 10 0;
#X connect 2 0 3 0;
#X connect 2 0 37 0;
#X connect 2 0 53 0;
#X connect 4 0 5 0;
#X connect 5 0 1 1;
#X connect 6 0 7 0;
#X connect 7 0 2 1;
#X connect 8 0 6 0;
#X connect 9 0 70 0;
#X connect 10 0 3 1;
#X connect 10 0 37 1;
#X connect 10 0 56 0;
#X connect 11 0 12 0;
#X connect 12 0 10 1;
#X connect 13 0 11 0;
#X connect 14 0 15 0;
#X connect 15 0 2 0;
#X connect 15 0 10 0;
#X connect 16 0 17 0;
#X connect 17 0 15 1;
#X connect 18 0 71 0;
#X connect 19 0 20 0;
#X connect 20 0 2 0;
#X connect 20 0 10 0;
#X connect 21 0 22 0;
#X connect 22 0 20 1;
#X connect 23 0 24 0;
#X connect 24 0 2 0;
#X connect 24 0 10 0;
#X connect 25 0 26 0;
#X connect 26 0 24 1;
#X connect 27 0 72 0;
#X connect 28 0 73 0;
#X connect 29 0 30 0;
#X connect 30 0 2 0;
#X connect 30 0 10 0;
#X connect 31 0 32 0;
#X connect 32 0 30 1;
#X connect 33 0 34 0;
#X connect 34 0 2 0;
#X connect 34 0 10 0;
#X connect 35 0 36 0;
#X connect 36 0 34 1;
#X connect 38 0 37 0;
#X connect 39 0 40 0;
#X connect 47 0 74 0;
#X connect 48 0 75 0;
#X connect 50 0 51 0;
#X connect 50 0 52 0;
#X connect 53 0 54 0;
#X connect 54 0 55 0;
#X connect 56 0 57 0;
#X connect 57 0 58 0;
#X connect 60 0 62 1;
#X connect 62 0 63 0;
#X connect 63 0 64 0;
#X connect 64 0 65 0;
#X connect 64 1 69 0;
#X connect 65 0 69 0;
#X connect 66 0 67 0;
#X connect 67 0 68 0;
#X connect 67 1 62 0;
#X connect 68 0 69 0;
#X connect 70 0 4 0;
#X connect 71 0 16 0;
#X connect 72 0 21 0;
#X connect 73 0 25 0;
#X connect 74 0 31 0;
#X connect 75 0 35 0;
#X coords 0 -1 1 1 220 200 1 5 120;
