#N canvas 807 150 915 816 12;
#X obj 156 81 inlet~ signal;
#X obj 156 305 *~;
#X obj 156 329 outlet~ left;
#X obj 304 306 *~;
#X msg 174 228 \$1 10;
#X obj 174 252 line~;
#X obj 174 276 cos~;
#X msg 322 220 \$1 10;
#X obj 322 244 line~;
#X obj 322 268 cos~;
#X obj 322 115 / 4;
#X floatatom 322 159 5 0 0 0 - - - 0;
#X obj 322 182 + 0.75;
#X text 357 117 <- Range 0-.25;
#X obj 304 330 outlet~ right;
#X obj 55 105 mknob 30 100 0 1 0 0 empty empty empty 10 70 0 8 1.48719e+09
524 1.48719e+09 10200 1;
#X obj 86 31 loadbang;
#X msg 86 56 size 30 100;
#X connect 0 0 1 0;
#X connect 0 0 3 0;
#X connect 1 0 2 0;
#X connect 3 0 14 0;
#X connect 4 0 5 0;
#X connect 5 0 6 0;
#X connect 6 0 1 1;
#X connect 7 0 8 0;
#X connect 8 0 9 0;
#X connect 9 0 3 1;
#X connect 10 0 11 0;
#X connect 11 0 12 0;
#X connect 11 0 4 0;
#X connect 12 0 7 0;
#X connect 15 0 10 0;
#X connect 16 0 17 0;
#X connect 17 0 15 0;
#X coords 0 -1 1 1 40 40 2 50 100;
