#N canvas 261 381 896 321 12;
#X msg 373 83 range center_frequency gap;
#X obj 22 90 inlet~;
#X obj 22 114 delwrite~ room_ambience_delay~ 10000;
#X obj 521 8 table prime;
#X obj 392 161 loadbang;
#X msg 383 200 \; prime 0 2 3 5 7 11 13 17 19 23 29 31 37 41 43 47 53 59 61 67 71 73 79 83 89 97 101 103 107 109 113 127 131 137 139 149 151 157 163 167 173 179 181 191 193 197 199 211 223 227 229 233 239 241 251 257 263 269 271 277 281 283 293;
#X obj 120 246 outlet~;
#X obj 334 2 inlet;
#X obj 123 169 inlet;
#X msg 123 193 all \$1;
#X obj 301 37 route clear;
#X msg 258 81 clear;
#X obj 120 222 clone room_delay_cl 24;
#X connect 1 0 2 0;
#X connect 4 0 5 0;
#X connect 7 0 10 0;
#X connect 8 0 9 0;
#X connect 9 0 12 0;
#X connect 10 0 11 0;
#X connect 10 1 12 1;
#X connect 11 0 2 0;
#X connect 12 0 6 0;
