#N canvas 68 97 1152 615 12;
#X obj 64 496 vcf~ 1;
#X obj 351 4 loadbang;
#X obj 351 28 f \$1;
#X obj 103 258 inlet;
#X obj 103 282 route range center_frequency gap;
#N canvas 89 120 450 300 (subpatch) 0;
#X obj 37 37 inlet;
#X obj 37 61 pack f 10;
#X obj 37 85 line~;
#X obj 37 139 outlet~;
#X obj 37 112 mtof~;
#X connect 0 0 1 0;
#X connect 1 0 2 0;
#X connect 2 0 4 0;
#X connect 4 0 3 0;
#X restore 173 376 pd;
#N canvas 89 120 450 300 (subpatch) 0;
#X obj 37 37 inlet;
#X obj 37 61 pack f 10;
#X obj 37 85 line~;
#X obj 37 139 outlet~;
#X obj 37 112 mtof~;
#X connect 0 0 1 0;
#X connect 1 0 2 0;
#X connect 2 0 4 0;
#X connect 4 0 3 0;
#X restore 243 376 pd;
#X obj 173 400 +~;
#X obj 243 400 *~ 1;
#X obj 64 544 outlet~;
#X obj 351 149 tabread prime;
#X obj 322 306 loadbang;
#X obj 322 330 unpack 12 24 3;
#X obj 54 224 delread~ room_ambience_delay~;
#X obj 54 131 * 1;
#X obj 54 107 inlet;
#X obj 158 42 loadbang;
#X obj 158 66 100;
#X obj 54 158 % 10000;
#X connect 0 1 9 0;
#X connect 1 0 2 0;
#X connect 2 0 10 0;
#X connect 3 0 4 0;
#X connect 4 1 5 0;
#X connect 4 2 6 0;
#X connect 5 0 7 0;
#X connect 6 0 8 0;
#X connect 7 0 0 1;
#X connect 8 0 7 1;
#X connect 10 0 8 1;
#X connect 10 0 14 1;
#X connect 11 0 12 0;
#X connect 12 1 5 0;
#X connect 12 2 6 0;
#X connect 13 0 0 0;
#X connect 14 0 18 0;
#X connect 15 0 14 0;
#X connect 16 0 17 0;
#X connect 17 0 14 0;
#X connect 18 0 13 0;
