#N canvas 916 304 450 370 12;
#X obj 96 78 noise~;
#X obj 96 102 lop~ 3000;
#X obj 96 126 hip~ 1000;
#X obj 179 241 *~;
#X obj 179 265 outlet~;
#X obj 234 38 inlet;
#X obj 289 41 inlet;
#X obj 234 86 f;
#X msg 234 110 \$1 1 0 \, 0 150 1;
#X obj 234 134 vline~;
#X obj 234 158 *~;
#X obj 170 161 osc~ 180;
#X obj 170 185 *~ 0.5;
#X connect 0 0 1 0;
#X connect 1 0 2 0;
#X connect 2 0 3 0;
#X connect 3 0 4 0;
#X connect 5 0 7 0;
#X connect 6 0 7 1;
#X connect 7 0 8 0;
#X connect 8 0 9 0;
#X connect 9 0 10 0;
#X connect 9 0 10 1;
#X connect 10 0 3 1;
#X connect 11 0 12 0;
#X connect 12 0 3 0;
