#N canvas 156 186 1018 780 12;
#X obj 132 123 t b b;
#X msg 132 147 1 \, 0 100;
#X obj 132 171 line~;
#X obj 132 195 pow~ 4;
#X obj 132 242 *~;
#X obj 150 219 osc~ 200;
#X obj 132 266 +~;
#X obj 222 169 line~;
#X obj 222 193 pow~ 4;
#X obj 222 217 *~;
#X msg 222 145 1 \, 0 200;
#X obj 272 169 noise~;
#X obj 272 193 hip~ 3000;
#X obj 272 217 bp~ 5000 2;
#X obj 132 294 lop~ 4000;
#X obj 132 318 /~ 5;
#X obj 132 96 inlet b;
#X text 125 67 Input metro;
#X text 21 25 Input metro;
#X obj 132 348 outlet~, f 11;
#X connect 0 0 1 0;
#X connect 0 1 10 0;
#X connect 1 0 2 0;
#X connect 2 0 3 0;
#X connect 3 0 4 0;
#X connect 4 0 6 0;
#X connect 5 0 4 1;
#X connect 6 0 14 0;
#X connect 7 0 8 0;
#X connect 8 0 9 0;
#X connect 9 0 6 1;
#X connect 10 0 7 0;
#X connect 11 0 12 0;
#X connect 12 0 13 0;
#X connect 13 0 9 1;
#X connect 14 0 15 0;
#X connect 15 0 19 0;
#X connect 16 0 0 0;
