#N canvas 187 14 1920 1007 12;
#X obj 47 46 tgl 19 0 empty empty empty 0 -10 0 12 #fcfcfc #000000 #000000 0 1;
#X obj 47 94 bng 19 250 50 0 empty empty empty 0 -10 0 12 #fcfcfc #000000 #000000;
#X obj 47 241 random 24;
#X obj 47 265 + 84;
#X floatatom 47 289 5 0 0 0 - - - 0;
#X obj 47 312 mtof;
#X floatatom 47 336 5 0 0 0 - - - 0;
#X msg 47 359 \$1 30;
#X obj 47 383 line 0 3;
#X obj 47 461 osc~;
#X obj 47 694 *~ 0.1;
#X obj 227 770 throw~ out;
#X obj 326 22 catch~ out;
#X obj 359 337 dac~;
#X obj 154 153 + 50;
#X floatatom 154 177 5 0 0 0 - - - 0;
#X obj 137 461 osc~;
#X obj 137 694 *~ 0.1;
#X obj 137 433 / 2;
#X obj 238 462 osc~;
#X obj 237 695 *~ 0.1;
#X obj 238 434 / 3;
#X obj 338 462 osc~;
#X obj 338 695 *~ 0.1;
#X obj 439 463 osc~;
#X obj 438 696 *~ 0.1;
#X obj 537 463 osc~;
#X obj 537 696 *~ 0.1;
#X obj 638 464 osc~;
#X obj 637 696 *~ 0.1;
#X obj 338 434 / 4;
#X obj 439 435 / 5;
#X obj 537 435 / 6;
#X obj 638 436 / 7;
#X obj 738 465 osc~;
#X obj 737 695 *~ 0.1;
#X obj 738 437 / 8;
#X obj 838 465 osc~;
#X obj 837 695 *~ 0.1;
#X obj 838 437 / 8;
#X obj 168 268 s trig;
#X obj 60 541 r trig;
#X obj 60 565 random 10;
#X obj 60 589 * 0.01;
#X msg 60 613 \$1 30;
#X obj 60 637 line 0.3;
#X obj 167 546 r trig;
#X obj 167 570 random 10;
#X obj 167 594 * 0.01;
#X msg 167 618 \$1 30;
#X obj 167 642 line 0.3;
#X obj 266 546 r trig;
#X obj 266 570 random 10;
#X obj 266 594 * 0.01;
#X msg 266 618 \$1 30;
#X obj 266 642 line 0.3;
#X obj 366 546 r trig;
#X obj 366 570 random 10;
#X obj 366 594 * 0.01;
#X msg 366 618 \$1 30;
#X obj 366 642 line 0.3;
#X obj 469 544 r trig;
#X obj 469 568 random 10;
#X obj 469 592 * 0.01;
#X msg 469 616 \$1 30;
#X obj 469 640 line 0.3;
#X obj 566 545 r trig;
#X obj 566 569 random 10;
#X obj 566 593 * 0.01;
#X msg 566 617 \$1 30;
#X obj 566 641 line 0.3;
#X obj 660 545 r trig;
#X obj 660 569 random 10;
#X obj 660 593 * 0.01;
#X msg 660 617 \$1 30;
#X obj 660 641 line 0.3;
#X obj 760 542 r trig;
#X obj 760 566 random 10;
#X obj 760 590 * 0.01;
#X msg 760 614 \$1 30;
#X obj 760 638 line 0.3;
#X obj 858 539 r trig;
#X obj 858 563 random 10;
#X obj 858 587 * 0.01;
#X msg 858 611 \$1 30;
#X obj 858 635 line 0.3;
#X obj 404 75 lop~ 1000;
#X obj 404 99 lop~ 2000;
#X obj 404 123 hip~ 600;
#X obj 404 147 *~ 0.8;
#X obj 404 171 delwrite~ delBuff 300;
#X obj 463 277 *~ 0.4;
#X obj 463 253 delread~ delBuff 300;
#X obj 659 143 setdsp~;
#X obj 45 70 metro 1000;
#X obj 154 129 random 500;
#X connect 0 0 94 0;
#X connect 1 0 2 0;
#X connect 1 0 40 0;
#X connect 1 0 95 0;
#X connect 2 0 3 0;
#X connect 3 0 4 0;
#X connect 4 0 5 0;
#X connect 5 0 6 0;
#X connect 6 0 7 0;
#X connect 7 0 8 0;
#X connect 8 0 9 0;
#X connect 8 0 18 0;
#X connect 8 0 21 0;
#X connect 8 0 21 1;
#X connect 8 0 30 0;
#X connect 8 0 31 0;
#X connect 8 0 32 0;
#X connect 8 0 33 0;
#X connect 8 0 36 0;
#X connect 8 0 39 0;
#X connect 9 0 10 0;
#X connect 10 0 11 0;
#X connect 12 0 13 0;
#X connect 12 0 13 1;
#X connect 12 0 86 0;
#X connect 14 0 15 0;
#X connect 15 0 94 1;
#X connect 16 0 17 0;
#X connect 17 0 11 0;
#X connect 18 0 16 0;
#X connect 19 0 20 0;
#X connect 20 0 11 0;
#X connect 21 0 19 0;
#X connect 22 0 23 0;
#X connect 23 0 11 0;
#X connect 24 0 25 0;
#X connect 25 0 11 0;
#X connect 26 0 27 0;
#X connect 27 0 11 0;
#X connect 28 0 29 0;
#X connect 29 0 11 0;
#X connect 30 0 22 0;
#X connect 31 0 24 0;
#X connect 32 0 26 0;
#X connect 33 0 28 0;
#X connect 34 0 35 0;
#X connect 35 0 11 0;
#X connect 36 0 34 0;
#X connect 37 0 38 0;
#X connect 38 0 11 0;
#X connect 39 0 37 0;
#X connect 41 0 42 0;
#X connect 42 0 43 0;
#X connect 43 0 44 0;
#X connect 44 0 45 0;
#X connect 45 0 10 1;
#X connect 46 0 47 0;
#X connect 47 0 48 0;
#X connect 48 0 49 0;
#X connect 49 0 50 0;
#X connect 50 0 17 1;
#X connect 51 0 52 0;
#X connect 52 0 53 0;
#X connect 53 0 54 0;
#X connect 54 0 55 0;
#X connect 55 0 20 1;
#X connect 56 0 57 0;
#X connect 57 0 58 0;
#X connect 58 0 59 0;
#X connect 59 0 60 0;
#X connect 60 0 23 1;
#X connect 61 0 62 0;
#X connect 62 0 63 0;
#X connect 63 0 64 0;
#X connect 64 0 65 0;
#X connect 65 0 25 1;
#X connect 66 0 67 0;
#X connect 67 0 68 0;
#X connect 68 0 69 0;
#X connect 69 0 70 0;
#X connect 70 0 27 1;
#X connect 71 0 72 0;
#X connect 72 0 73 0;
#X connect 73 0 74 0;
#X connect 74 0 75 0;
#X connect 75 0 29 1;
#X connect 76 0 77 0;
#X connect 77 0 78 0;
#X connect 78 0 79 0;
#X connect 79 0 80 0;
#X connect 80 0 35 1;
#X connect 81 0 82 0;
#X connect 82 0 83 0;
#X connect 83 0 84 0;
#X connect 84 0 85 0;
#X connect 85 0 38 1;
#X connect 86 0 87 0;
#X connect 87 0 88 0;
#X connect 88 0 89 0;
#X connect 89 0 90 0;
#X connect 91 0 13 0;
#X connect 91 0 13 1;
#X connect 92 0 91 0;
#X connect 94 0 1 0;
#X connect 95 0 14 0;
